# xmcd
#
# Track frame offsets: 
#        150
#        13365
#        25063
#        44650
#        59767
#        70649
#        92693
#        113545
#        126785
#        142979
#        157818
#        177633
#        207879
#        226718
#        239087
#        253320
#        268014
#        281333
#        295028
#        309287
#
# Disc length: 4281 seconds
#
# Revision: 0
# Processed by: cddbd v1.5.2PL0 Copyright (c) Steve Scherf et al.
# Submitted via: ExactAudioCopy v0.99pb5
#
DISCID=2010b714
DTITLE=Various Artist - A Brit-szigetek muzsikája 1.CD A Brit.szigetek legked
DTITLE=veltebb dallamai
DYEAR=2008
DGENRE=Folk
TTITLE0=The Korigs - Catch the Wind (Kapd el a szelet)
TTITLE1=Gerry Rafferty - Mary Skeffington
TTITLE2=Voice Magic - Streets of London (London utcái)
TTITLE3=Ralph McTell - Girl on a Bicycle (Lány a biciklin)
TTITLE4=Peggy Seeger - The First Time ever I Saw Your Face (Amikor elõ
TTITLE4=ször láttam az arcodat)
TTITLE5=Bert Jansch - She Moved through the Fair (Az a lány átsétált a
TTITLE5=vásáron)
TTITLE6=Pentagale - Once I Had a Sweetheart (Egyszer volt egy kedvesem
TTITLE6=)
TTITLE7=Donovan - Sunny Goodge Street (A napfényben fürdõ Goodge Stree
TTITLE7=t)
TTITLE8=Ralph McTell - Clown (Bohóc)
TTITLE9=Gerry Rafferty - Shoeshine Boy (Cipõtisztító fiú)
TTITLE10=Ralph McTell - Michael in the Garden (Mihály a kertben)
TTITLE11=Fairport Convention - Red and Gold (Vörös és arany)
TTITLE12=The Albion Band - Sister Moon (Holdnõvér)
TTITLE13=The Young World - Theme from Harry's Game (A "Harry játéka" c
TTITLE13=ímû film kísérõzenéje)
TTITLE14=The Collegiate Glee Club - John Peel
TTITLE15=The Ashley Hutchings Dance Band - Dumfries and Galloway - Reg
TTITLE15=atta (Dumfries és Galloway/Evezõsverseny)
TTITLE16=Fairport Convention - London River (London folyó)
TTITLE17=Amazing Blondel - Highwayman (Országúti vándor)
TTITLE18=The Albion Bend - Close Your Eyes (Hunyd be a szemed)
TTITLE19=Donovan - Love Will Find a Way (A szerelem mindent megold)
EXTD=
EXTT0=
EXTT1=
EXTT2=
EXTT3=
EXTT4=
EXTT5=
EXTT6=
EXTT7=
EXTT8=
EXTT9=
EXTT10=
EXTT11=
EXTT12=
EXTT13=
EXTT14=
EXTT15=
EXTT16=
EXTT17=
EXTT18=
EXTT19=
PLAYORDER=
